# xmcd
#
# Track frame offsets:
#	150
#	13704
#	27548
#	40740
#	59255
#	74600
#	86930
#	101983
#	113355
#	134409
#
# Disc length: 1948 seconds
#
# Revision: 1
# Processed by: cddbd v1.5.2PL0 Copyright (c) Steve Scherf et al.
# Submitted via: audiograbber 1.83.01
#
DISCID=8c079a0a
DTITLE=George Jones And Friends - God's Country
DYEAR=2006
DGENRE=Country
TTITLE0=God's Country (George Jones)
TTITLE1=She Thinks I Still Care (Vince Gill)
TTITLE2=Walk Through This World With Me (Mark Chesnutt)
TTITLE3=Window Up Above (Tanya Tucker)
TTITLE4=Take Me (Pam Tillis)
TTITLE5=White Lightning (Joe Diffie)
TTITLE6=He Stopped Loving Her Today (Sammy Kershaw)
TTITLE7=Beer Run (Garth Brooks/George Jones)
TTITLE8=Golden Rings/Were Gonna Hold On Medley (Joe Diffie/Shonna Faegan)
TTITLE9=The One I Loved Back Then (Corvette Song) (Tracy Lawrence)
EXTD=
EXTT0=
EXTT1=
EXTT2=
EXTT3=
EXTT4=
EXTT5=
EXTT6=
EXTT7=
EXTT8=
EXTT9=
PLAYORDER=
